<svg xmlns="http://www.w3.org/2000/svg" viewBox="5990.5 5003.2998046875 199 36" data-guides="{&quot;vertical&quot;:[],&quot;horizontal&quot;:[]}"> 
                <path fill="#3A3335" stroke="none" fill-opacity="1" stroke-width="1" stroke-opacity="1" font-size-adjust="none" id="tSvg1d31cfe337" title="Path 2" d="M 6026.9597 5021.2998046875 C 6026.9597 5028.9342046875 6021.7077 5035.4023046875 6014.488 5037.5424046875C 6012.8209 5038.0353046875 6011.0537 5038.2998046875 6009.2235 5038.2998046875C 6008.7598 5038.2998046875 6008.2835 5038.2757046875 6007.8323 5038.2517046875C 6006.9674 5038.1916046875 6006.1151 5038.0593046875 6005.2753 5037.8790046875C 6003.2823 5037.4462046875 6001.42722 5036.6887046875 5999.76013 5035.6788046875C 5999.76013 5030.821671354167 5999.76013 5025.964538020833 5999.76013 5021.1074046875C 5999.76013 5020.0855046875 5999.93561 5019.0997046875 6000.26152 5018.1859046875C 6001.5274 5014.6272046875 6005.0496 5012.0784446875 6009.1734 5012.0784446875C 6014.3752 5012.0784446875 6018.5867 5016.1180046875 6018.5867 5021.1074046875C 6018.5867 5024.2093046875 6016.9572 5026.9384046875 6014.4755 5028.5615046875C 6012.9587 5029.5474046875 6011.1412 5030.1364046875 6009.1609 5030.1364046875C 6008.7096 5030.1364046875 6008.2585 5030.1004046875 6007.8197 5030.0403046875C 6007.8197 5028.3892046875 6007.8197 5026.7381046875 6007.8197 5025.0870046875C 6008.270933333333 5025.0870046875 6008.722166666666 5025.0870046875 6009.1734 5025.0870046875C 6011.3293 5025.0870046875 6013.0841 5023.4038046875 6013.0841 5021.3359046875C 6013.0841 5019.2680046875 6011.3293 5017.5848046875 6009.1734 5017.5848046875C 6007.0176 5017.5848046875 6005.2627 5019.2680046875 6005.2627 5021.3359046875C 6005.2627 5025.022838020834 6005.2627 5028.709771354167 6005.2627 5032.3967046875C 6006.0774 5032.6612046875 6006.9298 5032.8415046875 6007.8197 5032.9377046875C 6008.2709 5032.9858046875 6008.7222 5033.0098046875 6009.1734 5033.0098046875C 6011.0661 5033.0098046875 6012.8711 5032.5890046875 6014.4629 5031.8557046875C 6018.5366 5029.9682046875 6021.3443 5025.9646046875 6021.3443 5021.3359046875C 6021.3443 5014.8798046875 6015.8918 5009.6619046875 6009.1734 5009.6619046875C 6002.455 5009.6619046875 5997.00258 5014.8917046875 5997.00258 5021.3359046875C 5997.00258 5021.6485046875 5997.01511 5021.9611046875 5997.04018 5022.2736046875C 5995.201809566666 5022.2736046875 5993.3634391333335 5022.2736046875 5991.5250687 5022.2736046875C 5991.499999998411 5021.9490046875 5991.5 5021.6243046875 5991.5 5021.2998046875C 5991.5 5011.9101246875 5999.43424 5004.2998046875 6009.2235 5004.2998046875C 6019.0128 5004.2998046875 6026.9597 5011.9101246875 6026.9597 5021.2998046875Z"></path> 
                <path fill="#3A3335" stroke="none" fill-opacity="1" stroke-width="1" stroke-opacity="1" font-size-adjust="none" id="tSvg17ce91bdcec" title="Path 3" d="M 6053.9078 5031.2998046875 C 6052.297 5031.2998046875 6050.8108 5031.0525046875 6049.4495 5030.5580046875C 6048.088 5030.0635046875 6046.8991 5029.3676046875 6045.8827 5028.4701046875C 6044.8857 5027.5544046875 6044.109 5026.4921046875 6043.5529 5025.2833046875C 6042.9969 5024.0745046875 6042.7188 5022.7467046875 6042.7188 5021.2998046875C 6042.7188 5019.8528046875 6042.9969 5018.5251046875 6043.5529 5017.3163046875C 6044.109 5016.1075046875 6044.8857 5015.0543046875 6045.8827 5014.1570046875C 6046.8991 5013.2412146875 6048.088 5012.5360746875 6049.4495 5012.0415546875C 6050.8108 5011.5470646875 6052.297 5011.2998046875 6053.9078 5011.2998046875C 6055.5377 5011.2998046875 6057.0239 5011.5470646875 6058.3661 5012.0415546875C 6059.7275 5012.5360746875 6060.9069 5013.2412146875 6061.904 5014.1570046875C 6062.9011 5015.0543046875 6063.6778 5016.1075046875 6064.2339 5017.3163046875C 6064.8091 5018.5251046875 6065.0968 5019.8528046875 6065.0968 5021.2998046875C 6065.0968 5022.7467046875 6064.8091 5024.0836046875 6064.2339 5025.3107046875C 6063.6778 5026.5196046875 6062.9011 5027.5727046875 6061.904 5028.4701046875C 6060.9069 5029.3676046875 6059.7275 5030.0635046875 6058.3661 5030.5580046875C 6057.0239 5031.0525046875 6055.5377 5031.2998046875 6053.9078 5031.2998046875ZM 6053.9078 5026.7943046875 C 6054.6747 5026.7943046875 6055.3843 5026.6660046875 6056.0362 5026.4097046875C 6056.7074 5026.1532046875 6057.2827 5025.7870046875 6057.7621 5025.3107046875C 6058.2607 5024.8163046875 6058.6441 5024.2302046875 6058.9127 5023.5526046875C 6059.2002 5022.8749046875 6059.3441 5022.1240046875 6059.3441 5021.2998046875C 6059.3441 5020.4573046875 6059.2002 5019.7064046875 6058.9127 5019.0471046875C 6058.6441 5018.3694046875 6058.2607 5017.7924046875 6057.7621 5017.3163046875C 6057.2827 5016.8217046875 6056.7074 5016.4463046875 6056.0362 5016.1899046875C 6055.3843 5015.9335046875 6054.6747 5015.8052046875 6053.9078 5015.8052046875C 6053.1408 5015.8052046875 6052.4217 5015.9335046875 6051.7505 5016.1899046875C 6051.0985 5016.4463046875 6050.5232 5016.8217046875 6050.0247 5017.3163046875C 6049.5452 5017.7924046875 6049.1618 5018.3694046875 6048.8741 5019.0471046875C 6048.6057 5019.7064046875 6048.4715 5020.4573046875 6048.4715 5021.2998046875C 6048.4715 5022.1240046875 6048.6057 5022.8749046875 6048.8741 5023.5526046875C 6049.1618 5024.2302046875 6049.5452 5024.8163046875 6050.0247 5025.3107046875C 6050.5232 5025.7870046875 6051.0985 5026.1532046875 6051.7505 5026.4097046875C 6052.4217 5026.6660046875 6053.1408 5026.7943046875 6053.9078 5026.7943046875Z"></path> 
                <path fill="#3A3335" stroke="none" fill-opacity="1" stroke-width="1" stroke-opacity="1" font-size-adjust="none" id="tSvg3a2093d641" title="Path 4" d="M 6077.6584 5031.2994046875 C 6074.6863 5031.2994046875 6072.366 5030.5210046875 6070.6977 5028.9642046875C 6069.0294 5027.4075046875 6068.1953 5025.2005046875 6068.1953 5022.3433046875C 6068.1953 5018.790218020833 6068.1953 5015.237131354167 6068.1953 5011.6840446875C 6070.0937 5011.6840446875 6071.9921 5011.6840446875 6073.8905 5011.6840446875C 6073.8905 5015.182198020833 6073.8905 5018.680351354166 6073.8905 5022.1785046875C 6073.8905 5023.8269046875 6074.226 5025.0082046875 6074.8972 5025.7224046875C 6075.5875 5026.4368046875 6076.5272 5026.7939046875 6077.7164 5026.7939046875C 6078.9052 5026.7939046875 6079.8348 5026.4368046875 6080.506 5025.7224046875C 6081.1771 5025.0082046875 6081.5131 5023.8269046875 6081.5131 5022.1785046875C 6081.5131 5018.680351354166 6081.5131 5015.182198020833 6081.5131 5011.6840446875C 6083.382766666667 5011.6840446875 6085.252433333333 5011.6840446875 6087.1221 5011.6840446875C 6087.1221 5015.237131354167 6087.1221 5018.790218020833 6087.1221 5022.3433046875C 6087.1221 5025.2005046875 6086.2872 5027.4075046875 6084.6191 5028.9642046875C 6082.951 5030.5210046875 6080.6305 5031.2994046875 6077.6584 5031.2994046875Z"></path> 
                <path fill="#3A3335" stroke="none" fill-opacity="1" stroke-width="1" stroke-opacity="1" font-size-adjust="none" id="tSvg2a0a50bb16" title="Path 5" d="M 6095.245 5030.9147046875 C 6095.245 5025.9422046875 6095.245 5020.9697046875 6095.245 5015.9972046875C 6093.1835 5015.9972046875 6091.122 5015.9972046875 6089.0605 5015.9972046875C 6089.0605 5014.5594846875 6089.0605 5013.1217646875 6089.0605 5011.6840446875C 6095.0723333333335 5011.6840446875 6101.0841666666665 5011.6840446875 6107.096 5011.6840446875C 6107.096 5013.1217646875 6107.096 5014.5594846875 6107.096 5015.9972046875C 6105.044 5015.9972046875 6102.992 5015.9972046875 6100.94 5015.9972046875C 6100.94 5020.9697046875 6100.94 5025.9422046875 6100.94 5030.9147046875C 6099.041666666667 5030.9147046875 6097.143333333333 5030.9147046875 6095.245 5030.9147046875Z"></path> 
                <path fill="#3A3335" stroke="none" fill-opacity="1" stroke-width="1" stroke-opacity="1" font-size-adjust="none" id="tSvg8cc3bb8b6c" title="Path 6" d="M 6109.506 5030.9147046875 C 6109.506 5024.5044846875 6109.506 5018.0942646875 6109.506 5011.6840446875C 6112.573666666667 5011.6840446875 6115.641333333333 5011.6840446875 6118.709 5011.6840446875C 6120.551 5011.6840446875 6122.133 5011.9679246875 6123.455 5012.5356846875C 6124.798 5013.1035046875 6125.833 5013.9276646875 6126.562 5015.0082046875C 6127.291 5016.0704046875 6127.655 5017.3342046875 6127.655 5018.7993046875C 6127.655 5020.2463046875 6127.291 5021.5009046875 6126.562 5022.5631046875C 6125.833 5023.6254046875 6124.798 5024.4496046875 6123.455 5025.0357046875C 6122.133 5025.6034046875 6120.551 5025.8873046875 6118.709 5025.8873046875C 6116.696 5025.8873046875 6114.683 5025.8873046875 6112.67 5025.8873046875C 6113.513666666667 5025.0997713541665 6114.357333333333 5024.312238020833 6115.201 5023.5247046875C 6115.201 5025.988038020833 6115.201 5028.451371354166 6115.201 5030.9147046875C 6113.3026666666665 5030.9147046875 6111.404333333333 5030.9147046875 6109.506 5030.9147046875ZM 6115.201 5024.1016046875 C 6114.357333333333 5023.268238020833 6113.513666666667 5022.434871354167 6112.67 5021.6015046875C 6114.568 5021.6015046875 6116.466 5021.6015046875 6118.364 5021.6015046875C 6119.553 5021.6015046875 6120.435 5021.3544046875 6121.011 5020.8598046875C 6121.606 5020.3654046875 6121.902 5019.6785046875 6121.902 5018.7993046875C 6121.902 5017.9020046875 6121.606 5017.2060046875 6121.011 5016.7115046875C 6120.435 5016.2170046875 6119.553 5015.9697046875 6118.364 5015.9697046875C 6116.466 5015.9697046875 6114.568 5015.9697046875 6112.67 5015.9697046875C 6113.513666666667 5015.136391354166 6114.357333333333 5014.303078020834 6115.201 5013.4697646875C 6115.201 5017.013711354167 6115.201 5020.5576580208335 6115.201 5024.1016046875Z"></path> 
                <path fill="#3A3335" stroke="none" fill-opacity="1" stroke-width="1" stroke-opacity="1" font-size-adjust="none" id="tSvg83ad44cf98" title="Path 7" d="M 6135.954 5019.1291046875 C 6139.07 5019.1291046875 6142.186 5019.1291046875 6145.302 5019.1291046875C 6145.302 5020.4844046875 6145.302 5021.8397046875 6145.302 5023.1950046875C 6142.186 5023.1950046875 6139.07 5023.1950046875 6135.954 5023.1950046875C 6135.954 5021.8397046875 6135.954 5020.4844046875 6135.954 5019.1291046875ZM 6136.356 5026.7115046875 C 6139.865333333333 5026.7115046875 6143.374666666667 5026.7115046875 6146.884 5026.7115046875C 6146.884 5028.112571354167 6146.884 5029.513638020833 6146.884 5030.9147046875C 6141.495666666667 5030.9147046875 6136.107333333333 5030.9147046875 6130.719 5030.9147046875C 6130.719 5024.5044846875 6130.719 5018.0942646875 6130.719 5011.6840446875C 6135.982666666667 5011.6840446875 6141.2463333333335 5011.6840446875 6146.51 5011.6840446875C 6146.51 5013.085131354167 6146.51 5014.486218020833 6146.51 5015.8873046875C 6143.125333333333 5015.8873046875 6139.740666666667 5015.8873046875 6136.356 5015.8873046875C 6136.356 5019.495371354166 6136.356 5023.103438020833 6136.356 5026.7115046875Z"></path> 
                <path fill="#3A3335" stroke="none" fill-opacity="1" stroke-width="1" stroke-opacity="1" font-size-adjust="none" id="tSvg1854f16b115" title="Path 8" d="M 6155.567 5019.1291046875 C 6158.683333333333 5019.1291046875 6161.799666666667 5019.1291046875 6164.916 5019.1291046875C 6164.916 5020.4844046875 6164.916 5021.8397046875 6164.916 5023.1950046875C 6161.799666666667 5023.1950046875 6158.683333333333 5023.1950046875 6155.567 5023.1950046875C 6155.567 5021.8397046875 6155.567 5020.4844046875 6155.567 5019.1291046875ZM 6155.97 5026.7115046875 C 6159.479 5026.7115046875 6162.988 5026.7115046875 6166.497 5026.7115046875C 6166.497 5028.112571354167 6166.497 5029.513638020833 6166.497 5030.9147046875C 6161.108666666667 5030.9147046875 6155.720333333334 5030.9147046875 6150.332 5030.9147046875C 6150.332 5024.5044846875 6150.332 5018.0942646875 6150.332 5011.6840446875C 6155.596 5011.6840446875 6160.86 5011.6840446875 6166.124 5011.6840446875C 6166.124 5013.085131354167 6166.124 5014.486218020833 6166.124 5015.8873046875C 6162.739333333333 5015.8873046875 6159.354666666667 5015.8873046875 6155.97 5015.8873046875C 6155.97 5019.495371354166 6155.97 5023.103438020833 6155.97 5026.7115046875Z"></path> 
                <path fill="#3A3335" stroke="none" fill-opacity="1" stroke-width="1" stroke-opacity="1" font-size-adjust="none" id="tSvg75942a810a" title="Path 9" d="M 6169.947 5030.9147046875 C 6169.947 5024.5044846875 6169.947 5018.0942646875 6169.947 5011.6840446875C 6173.015 5011.6840446875 6176.083 5011.6840446875 6179.151 5011.6840446875C 6180.993 5011.6840446875 6182.575 5011.9679246875 6183.898 5012.5356846875C 6185.241 5013.1035046875 6186.276 5013.9276646875 6187.003 5015.0082046875C 6187.733 5016.0704046875 6188.097 5017.3342046875 6188.097 5018.7993046875C 6188.097 5020.2463046875 6187.733 5021.5009046875 6187.003 5022.5631046875C 6186.276 5023.6071046875 6185.241 5024.4130046875 6183.898 5024.9807046875C 6182.575 5025.5302046875 6180.993 5025.8049046875 6179.151 5025.8049046875C 6177.1376666666665 5025.8049046875 6175.124333333333 5025.8049046875 6173.111 5025.8049046875C 6173.9546666666665 5025.044838020834 6174.798333333333 5024.284771354167 6175.642 5023.5247046875C 6175.642 5025.988038020833 6175.642 5028.451371354166 6175.642 5030.9147046875C 6173.743666666666 5030.9147046875 6171.845333333334 5030.9147046875 6169.947 5030.9147046875ZM 6182.402 5030.9147046875 C 6180.733666666667 5028.579571354167 6179.065333333333 5026.2444380208335 6177.397 5023.9093046875C 6179.42 5023.9093046875 6181.443 5023.9093046875 6183.466 5023.9093046875C 6185.144 5026.2444380208335 6186.822 5028.579571354167 6188.5 5030.9147046875C 6186.467333333333 5030.9147046875 6184.434666666667 5030.9147046875 6182.402 5030.9147046875ZM 6175.642 5024.1016046875 C 6174.798333333333 5023.268238020833 6173.9546666666665 5022.434871354167 6173.111 5021.6015046875C 6175.009666666667 5021.6015046875 6176.908333333334 5021.6015046875 6178.807 5021.6015046875C 6179.996 5021.6015046875 6180.877 5021.3544046875 6181.453 5020.8598046875C 6182.048 5020.3654046875 6182.344 5019.6785046875 6182.344 5018.7993046875C 6182.344 5017.9020046875 6182.048 5017.2060046875 6181.453 5016.7115046875C 6180.877 5016.2170046875 6179.996 5015.9697046875 6178.807 5015.9697046875C 6176.908333333334 5015.9697046875 6175.009666666667 5015.9697046875 6173.111 5015.9697046875C 6173.9546666666665 5015.136391354166 6174.798333333333 5014.303078020834 6175.642 5013.4697646875C 6175.642 5017.013711354167 6175.642 5020.5576580208335 6175.642 5024.1016046875Z"></path> 
                <defs>

                </defs> 
    </svg>